<?xml version="1.0" encoding="UTF-8" standalone="no"?>
<!DOCTYPE svg PUBLIC "-//W3C//DTD SVG 1.1//EN"
 "http://www.w3.org/Graphics/SVG/1.1/DTD/svg11.dtd">
<!-- Generated by graphviz version 2.40.1 (20161225.0304)
 -->
<!-- Title: %3 Pages: 1 -->
<svg width="1018pt" height="404pt"
 viewBox="0.00 0.00 1017.80 404.00" xmlns="http://www.w3.org/2000/svg" xmlns:xlink="http://www.w3.org/1999/xlink">
<g id="graph0" class="graph" transform="scale(1 1) rotate(0) translate(4 400)">
<title>%3</title>
<polygon fill="#ffffff" stroke="transparent" points="-4,4 -4,-400 1013.8022,-400 1013.8022,4 -4,4"/>
<!-- [root] aws_instance.example&#45;01 -->
<g id="node1" class="node">
<title>[root] aws_instance.example&#45;01</title>
<polygon fill="none" stroke="#000000" points="859.4889,-180 699.0394,-180 699.0394,-144 859.4889,-144 859.4889,-180"/>
<text text-anchor="middle" x="779.2642" y="-157.8" font-family="Times,serif" font-size="14.00" fill="#000000">aws_instance.example&#45;01</text>
</g>
<!-- [root] aws_key_pair.example&#45;01 -->
<g id="node2" class="node">
<title>[root] aws_key_pair.example&#45;01</title>
<polygon fill="none" stroke="#000000" points="860.3341,-108 698.1943,-108 698.1943,-72 860.3341,-72 860.3341,-108"/>
<text text-anchor="middle" x="779.2642" y="-85.8" font-family="Times,serif" font-size="14.00" fill="#000000">aws_key_pair.example&#45;01</text>
</g>
<!-- [root] aws_instance.example&#45;01&#45;&gt;[root] aws_key_pair.example&#45;01 -->
<g id="edge1" class="edge">
<title>[root] aws_instance.example&#45;01&#45;&gt;[root] aws_key_pair.example&#45;01</title>
<path fill="none" stroke="#000000" d="M779.2642,-143.8314C779.2642,-136.131 779.2642,-126.9743 779.2642,-118.4166"/>
<polygon fill="#000000" stroke="#000000" points="782.7643,-118.4132 779.2642,-108.4133 775.7643,-118.4133 782.7643,-118.4132"/>
</g>
<!-- [root] aws_security_group.example&#45;01 -->
<g id="node3" class="node">
<title>[root] aws_security_group.example&#45;01</title>
<polygon fill="none" stroke="#000000" points="680.5994,-108 481.9289,-108 481.9289,-72 680.5994,-72 680.5994,-108"/>
<text text-anchor="middle" x="581.2642" y="-85.8" font-family="Times,serif" font-size="14.00" fill="#000000">aws_security_group.example&#45;01</text>
</g>
<!-- [root] aws_instance.example&#45;01&#45;&gt;[root] aws_security_group.example&#45;01 -->
<g id="edge2" class="edge">
<title>[root] aws_instance.example&#45;01&#45;&gt;[root] aws_security_group.example&#45;01</title>
<path fill="none" stroke="#000000" d="M729.556,-143.9243C702.4882,-134.0815 668.8203,-121.8386 640.4092,-111.5073"/>
<polygon fill="#000000" stroke="#000000" points="641.5869,-108.2114 630.9928,-108.0831 639.1946,-114.7899 641.5869,-108.2114"/>
</g>
<!-- [root] data.aws_ami.bionic -->
<g id="node7" class="node">
<title>[root] data.aws_ami.bionic</title>
<polygon fill="none" stroke="#000000" points="1009.8404,-108 878.688,-108 878.688,-72 1009.8404,-72 1009.8404,-108"/>
<text text-anchor="middle" x="944.2642" y="-85.8" font-family="Times,serif" font-size="14.00" fill="#000000">data.aws_ami.bionic</text>
</g>
<!-- [root] aws_instance.example&#45;01&#45;&gt;[root] data.aws_ami.bionic -->
<g id="edge3" class="edge">
<title>[root] aws_instance.example&#45;01&#45;&gt;[root] data.aws_ami.bionic</title>
<path fill="none" stroke="#000000" d="M820.9006,-143.8314C842.9684,-134.2018 870.2549,-122.295 893.5499,-112.1299"/>
<polygon fill="#000000" stroke="#000000" points="895.1615,-115.2454 902.9271,-108.038 892.3619,-108.8296 895.1615,-115.2454"/>
</g>
<!-- [root] provider.aws -->
<g id="node9" class="node">
<title>[root] provider.aws</title>
<polygon fill="none" stroke="#000000" points="779.2642,-36 700.6558,-18 779.2642,0 857.8725,-18 779.2642,-36"/>
<text text-anchor="middle" x="779.2642" y="-13.8" font-family="Times,serif" font-size="14.00" fill="#000000">provider.aws</text>
</g>
<!-- [root] aws_key_pair.example&#45;01&#45;&gt;[root] provider.aws -->
<g id="edge4" class="edge">
<title>[root] aws_key_pair.example&#45;01&#45;&gt;[root] provider.aws</title>
<path fill="none" stroke="#000000" d="M779.2642,-71.8314C779.2642,-64.131 779.2642,-54.9743 779.2642,-46.4166"/>
<polygon fill="#000000" stroke="#000000" points="782.7643,-46.4132 779.2642,-36.4133 775.7643,-46.4133 782.7643,-46.4132"/>
</g>
<!-- [root] aws_security_group.example&#45;01&#45;&gt;[root] provider.aws -->
<g id="edge5" class="edge">
<title>[root] aws_security_group.example&#45;01&#45;&gt;[root] provider.aws</title>
<path fill="none" stroke="#000000" d="M630.9723,-71.9243C664.3598,-59.7834 707.7891,-43.9909 739.0085,-32.6384"/>
<polygon fill="#000000" stroke="#000000" points="740.4856,-35.8256 748.6874,-29.1188 738.0934,-29.247 740.4856,-35.8256"/>
</g>
<!-- [root] aws_security_group_rule.egress_tcp_all -->
<g id="node4" class="node">
<title>[root] aws_security_group_rule.egress_tcp_all</title>
<polygon fill="none" stroke="#000000" points="701.8648,-252 460.6636,-252 460.6636,-216 701.8648,-216 701.8648,-252"/>
<text text-anchor="middle" x="581.2642" y="-229.8" font-family="Times,serif" font-size="14.00" fill="#000000">aws_security_group_rule.egress_tcp_all</text>
</g>
<!-- [root] aws_security_group_rule.egress_tcp_all&#45;&gt;[root] aws_security_group.example&#45;01 -->
<g id="edge6" class="edge">
<title>[root] aws_security_group_rule.egress_tcp_all&#45;&gt;[root] aws_security_group.example&#45;01</title>
<path fill="none" stroke="#000000" d="M581.2642,-215.7623C581.2642,-191.201 581.2642,-147.2474 581.2642,-118.3541"/>
<polygon fill="#000000" stroke="#000000" points="584.7643,-118.0896 581.2642,-108.0896 577.7643,-118.0897 584.7643,-118.0896"/>
</g>
<!-- [root] aws_security_group_rule.ingress_icmp_echo_request -->
<g id="node5" class="node">
<title>[root] aws_security_group_rule.ingress_icmp_echo_request</title>
<polygon fill="none" stroke="#000000" points="316.2928,-252 .2355,-252 .2355,-216 316.2928,-216 316.2928,-252"/>
<text text-anchor="middle" x="158.2642" y="-229.8" font-family="Times,serif" font-size="14.00" fill="#000000">aws_security_group_rule.ingress_icmp_echo_request</text>
</g>
<!-- [root] aws_security_group_rule.ingress_icmp_echo_request&#45;&gt;[root] aws_security_group.example&#45;01 -->
<g id="edge7" class="edge">
<title>[root] aws_security_group_rule.ingress_icmp_echo_request&#45;&gt;[root] aws_security_group.example&#45;01</title>
<path fill="none" stroke="#000000" d="M211.4091,-215.9081C289.6355,-189.2778 435.4877,-139.626 518.7491,-111.2817"/>
<polygon fill="#000000" stroke="#000000" points="519.9981,-114.5539 528.3366,-108.0179 517.7422,-107.9273 519.9981,-114.5539"/>
</g>
<!-- [root] aws_security_group_rule.ingress_tcp_22 -->
<g id="node6" class="node">
<title>[root] aws_security_group_rule.ingress_tcp_22</title>
<polygon fill="none" stroke="#000000" points="965.0475,-252 719.4809,-252 719.4809,-216 965.0475,-216 965.0475,-252"/>
<text text-anchor="middle" x="842.2642" y="-229.8" font-family="Times,serif" font-size="14.00" fill="#000000">aws_security_group_rule.ingress_tcp_22</text>
</g>
<!-- [root] aws_security_group_rule.ingress_tcp_22&#45;&gt;[root] aws_security_group.example&#45;01 -->
<g id="edge8" class="edge">
<title>[root] aws_security_group_rule.ingress_tcp_22&#45;&gt;[root] aws_security_group.example&#45;01</title>
<path fill="none" stroke="#000000" d="M775.7333,-215.925C748.3158,-207.0799 716.8182,-195.0555 690.2642,-180 658.7023,-162.1052 627.2413,-134.8624 606.2913,-115.037"/>
<polygon fill="#000000" stroke="#000000" points="608.7046,-112.502 599.0677,-108.0996 603.8558,-117.5508 608.7046,-112.502"/>
</g>
<!-- [root] data.aws_ami.bionic&#45;&gt;[root] provider.aws -->
<g id="edge9" class="edge">
<title>[root] data.aws_ami.bionic&#45;&gt;[root] provider.aws</title>
<path fill="none" stroke="#000000" d="M902.6277,-71.8314C875.8771,-60.1584 841.458,-45.1391 815.7759,-33.9324"/>
<polygon fill="#000000" stroke="#000000" points="816.9603,-30.6305 806.395,-29.8389 814.1606,-37.0463 816.9603,-30.6305"/>
</g>
<!-- [root] output.public_ip -->
<g id="node8" class="node">
<title>[root] output.public_ip</title>
<polygon fill="none" stroke="#000000" points="436.4264,-252 334.1019,-252 334.1019,-216 442.4264,-216 442.4264,-246 436.4264,-252"/>
<polyline fill="none" stroke="#000000" points="436.4264,-252 436.4264,-246 "/>
<polyline fill="none" stroke="#000000" points="442.4264,-246 436.4264,-246 "/>
<text text-anchor="middle" x="388.2642" y="-229.8" font-family="Times,serif" font-size="14.00" fill="#000000">output.public_ip</text>
</g>
<!-- [root] output.public_ip&#45;&gt;[root] aws_instance.example&#45;01 -->
<g id="edge14" class="edge">
<title>[root] output.public_ip&#45;&gt;[root] aws_instance.example&#45;01</title>
<path fill="none" stroke="#000000" d="M442.4585,-218.0874C445.4289,-217.3492 448.3784,-216.6475 451.2642,-216 530.9365,-198.1222 622.7321,-183.5112 688.9137,-174.0168"/>
<polygon fill="#000000" stroke="#000000" points="689.4915,-177.47 698.8984,-172.5954 688.5049,-170.5398 689.4915,-177.47"/>
</g>
<!-- [root] meta.count&#45;boundary (EachMode fixup) -->
<g id="node10" class="node">
<title>[root] meta.count&#45;boundary (EachMode fixup)</title>
<ellipse fill="none" stroke="#000000" cx="466.2642" cy="-306" rx="174.7874" ry="18"/>
<text text-anchor="middle" x="466.2642" y="-301.8" font-family="Times,serif" font-size="14.00" fill="#000000">[root] meta.count&#45;boundary (EachMode fixup)</text>
</g>
<!-- [root] meta.count&#45;boundary (EachMode fixup)&#45;&gt;[root] aws_security_group_rule.egress_tcp_all -->
<g id="edge10" class="edge">
<title>[root] meta.count&#45;boundary (EachMode fixup)&#45;&gt;[root] aws_security_group_rule.egress_tcp_all</title>
<path fill="none" stroke="#000000" d="M494.6911,-288.2022C509.507,-278.9262 527.8175,-267.4623 543.7776,-257.4698"/>
<polygon fill="#000000" stroke="#000000" points="545.7469,-260.3663 552.3654,-252.0931 542.0322,-254.4332 545.7469,-260.3663"/>
</g>
<!-- [root] meta.count&#45;boundary (EachMode fixup)&#45;&gt;[root] aws_security_group_rule.ingress_icmp_echo_request -->
<g id="edge11" class="edge">
<title>[root] meta.count&#45;boundary (EachMode fixup)&#45;&gt;[root] aws_security_group_rule.ingress_icmp_echo_request</title>
<path fill="none" stroke="#000000" d="M395.6027,-289.4817C350.9175,-279.0358 292.8359,-265.4583 245.3152,-254.3496"/>
<polygon fill="#000000" stroke="#000000" points="245.8779,-250.8868 235.3437,-252.0186 244.2845,-257.7031 245.8779,-250.8868"/>
</g>
<!-- [root] meta.count&#45;boundary (EachMode fixup)&#45;&gt;[root] aws_security_group_rule.ingress_tcp_22 -->
<g id="edge12" class="edge">
<title>[root] meta.count&#45;boundary (EachMode fixup)&#45;&gt;[root] aws_security_group_rule.ingress_tcp_22</title>
<path fill="none" stroke="#000000" d="M549.2444,-290.1102C604.8517,-279.462 678.5075,-265.3576 738.0598,-253.954"/>
<polygon fill="#000000" stroke="#000000" points="739.0842,-257.3215 748.2475,-252.0032 737.7676,-250.4465 739.0842,-257.3215"/>
</g>
<!-- [root] meta.count&#45;boundary (EachMode fixup)&#45;&gt;[root] output.public_ip -->
<g id="edge13" class="edge">
<title>[root] meta.count&#45;boundary (EachMode fixup)&#45;&gt;[root] output.public_ip</title>
<path fill="none" stroke="#000000" d="M446.5815,-287.8314C437.159,-279.1337 425.724,-268.5783 415.4846,-259.1265"/>
<polygon fill="#000000" stroke="#000000" points="417.6626,-256.3738 407.9406,-252.1628 412.9146,-261.5175 417.6626,-256.3738"/>
</g>
<!-- [root] provider.aws (close) -->
<g id="node11" class="node">
<title>[root] provider.aws (close)</title>
<ellipse fill="none" stroke="#000000" cx="763.2642" cy="-306" rx="104.3276" ry="18"/>
<text text-anchor="middle" x="763.2642" y="-301.8" font-family="Times,serif" font-size="14.00" fill="#000000">[root] provider.aws (close)</text>
</g>
<!-- [root] provider.aws (close)&#45;&gt;[root] aws_instance.example&#45;01 -->
<g id="edge15" class="edge">
<title>[root] provider.aws (close)&#45;&gt;[root] aws_instance.example&#45;01</title>
<path fill="none" stroke="#000000" d="M846.7935,-295.2001C898.6354,-286.589 958.3229,-272.5348 974.2642,-252 1008.5171,-207.8769 935.9028,-184.5743 869.7673,-172.8341"/>
<polygon fill="#000000" stroke="#000000" points="870.0935,-169.3395 859.6487,-171.1163 868.9218,-176.2407 870.0935,-169.3395"/>
</g>
<!-- [root] provider.aws (close)&#45;&gt;[root] aws_security_group_rule.egress_tcp_all -->
<g id="edge16" class="edge">
<title>[root] provider.aws (close)&#45;&gt;[root] aws_security_group_rule.egress_tcp_all</title>
<path fill="none" stroke="#000000" d="M721.5097,-289.4817C696.2565,-279.4915 663.7629,-266.6368 636.4124,-255.8169"/>
<polygon fill="#000000" stroke="#000000" points="637.5593,-252.5067 626.9729,-252.0826 634.9842,-259.0159 637.5593,-252.5067"/>
</g>
<!-- [root] provider.aws (close)&#45;&gt;[root] aws_security_group_rule.ingress_icmp_echo_request -->
<g id="edge17" class="edge">
<title>[root] provider.aws (close)&#45;&gt;[root] aws_security_group_rule.ingress_icmp_echo_request</title>
<path fill="none" stroke="#000000" d="M687.9679,-293.4833C675.393,-291.5431 662.4709,-289.6411 650.2642,-288 634.0368,-285.8183 462.6905,-267.0885 326.7101,-252.2913"/>
<polygon fill="#000000" stroke="#000000" points="326.8908,-248.7904 316.5708,-251.1881 326.1336,-255.7493 326.8908,-248.7904"/>
</g>
<!-- [root] provider.aws (close)&#45;&gt;[root] aws_security_group_rule.ingress_tcp_22 -->
<g id="edge18" class="edge">
<title>[root] provider.aws (close)&#45;&gt;[root] aws_security_group_rule.ingress_tcp_22</title>
<path fill="none" stroke="#000000" d="M782.7923,-288.2022C792.4989,-279.3557 804.3891,-268.5191 814.9798,-258.8668"/>
<polygon fill="#000000" stroke="#000000" points="817.3787,-261.416 822.412,-252.0931 812.6634,-256.2424 817.3787,-261.416"/>
</g>
<!-- [root] root -->
<g id="node12" class="node">
<title>[root] root</title>
<ellipse fill="none" stroke="#000000" cx="614.2642" cy="-378" rx="46.8976" ry="18"/>
<text text-anchor="middle" x="614.2642" y="-373.8" font-family="Times,serif" font-size="14.00" fill="#000000">[root] root</text>
</g>
<!-- [root] root&#45;&gt;[root] meta.count&#45;boundary (EachMode fixup) -->
<g id="edge19" class="edge">
<title>[root] root&#45;&gt;[root] meta.count&#45;boundary (EachMode fixup)</title>
<path fill="none" stroke="#000000" d="M585.0241,-363.7751C564.1263,-353.6086 535.5998,-339.7308 511.7428,-328.1248"/>
<polygon fill="#000000" stroke="#000000" points="513.0414,-324.8643 502.5179,-323.6369 509.9791,-331.159 513.0414,-324.8643"/>
</g>
<!-- [root] root&#45;&gt;[root] provider.aws (close) -->
<g id="edge20" class="edge">
<title>[root] root&#45;&gt;[root] provider.aws (close)</title>
<path fill="none" stroke="#000000" d="M643.7018,-363.7751C665.2099,-353.3819 694.7446,-339.1101 719.0777,-327.3519"/>
<polygon fill="#000000" stroke="#000000" points="720.6402,-330.4841 728.1213,-322.9818 717.5946,-324.1814 720.6402,-330.4841"/>
</g>
</g>
</svg>
